<svg xmlns="http://www.w3.org/2000/svg" id="icon-android" width="35.7" height="40.8" viewBox="0 0 35.7 40.8">
    <path fill="#3dda84" fill-rule="evenodd" d="M326.718 568.161a1.184 1.184 0 1 1 1.218-1.185 1.2 1.2 0 0 1-1.218 1.185zm-9.736 0a1.184 1.184 0 1 1 1.218-1.185 1.2 1.2 0 0 1-1.218 1.185zm10.456-4.745l.454-.667.454-.657 1.011-1.477a.386.386 0 0 0-.113-.547.407.407 0 0 0-.56.11l-1.543 2.248-.463.677a13.917 13.917 0 0 0-9.652 0l-.461-.677-.456-.664-1.084-1.583a.415.415 0 0 0-.564-.11.39.39 0 0 0-.113.547l1.011 1.477.454.657.456.667c-3.443 1.562-5.773 4.519-5.773 7.9h22.716c-.004-3.382-2.334-6.34-5.774-7.901zm-16.77 9.483h-.175v17.373a2.539 2.539 0 0 0 2.571 2.5h1.853a2.226 2.226 0 0 0-.1.657v5a2.436 2.436 0 0 0 4.87 0v-5a2.309 2.309 0 0 0-.1-.657h4.52a2.308 2.308 0 0 0-.1.657v5a2.436 2.436 0 0 0 4.87 0v-5a2.228 2.228 0 0 0-.1-.657h1.856a2.537 2.537 0 0 0 2.568-2.5V572.9zm-4.232 0a2.4 2.4 0 0 0-2.436 2.367V585.4a2.435 2.435 0 0 0 4.868 0v-10.134a2.4 2.4 0 0 0-2.433-2.366zm30.832 0a2.4 2.4 0 0 0-2.435 2.368V585.4a2.435 2.435 0 0 0 4.868 0v-10.134a2.4 2.4 0 0 0-2.434-2.366z" transform="translate(-304 -560)"/>
</svg>
