<svg width="32" height="32" viewBox="0 0 32 32" xmlns="http://www.w3.org/2000/svg">
    <g fill-rule="nonzero" fill="none">
        <circle fill="#000" cx="16" cy="16" r="16"/>
        <g fill="#FFF">
            <path d="M7.3 19.819h1.61v-5.4H7.3v5.4zm.807-6.228a.94.94 0 0 0 .641-.233.72.72 0 0 0 .267-.561.722.722 0 0 0-.267-.565.943.943 0 0 0-.64-.232.946.946 0 0 0-.64.232.72.72 0 0 0-.268.565c0 .219.09.406.269.561.18.156.392.233.638.233zM13.755 20c.785 0 1.464-.151 2.037-.454a3.191 3.191 0 0 0 1.325-1.287c.31-.555.466-1.214.466-1.976v-.01c0-.761-.156-1.42-.467-1.976a3.184 3.184 0 0 0-1.327-1.284c-.573-.301-1.25-.452-2.034-.452-.78 0-1.456.15-2.03.452-.573.3-1.017.728-1.33 1.283-.314.555-.47 1.214-.47 1.977v.01c0 .762.155 1.421.466 1.977.31.557.752.986 1.325 1.288.572.301 1.252.452 2.04.452zm0-1.255c-.436 0-.813-.102-1.132-.304a1.994 1.994 0 0 1-.739-.858c-.174-.37-.26-.803-.26-1.3v-.01c0-.5.088-.934.264-1.302.177-.367.424-.652.743-.853.32-.2.694-.301 1.124-.301.432 0 .808.1 1.127.301.319.201.566.486.74.853.175.368.262.802.262 1.302v.01c0 .497-.087.93-.262 1.3-.174.369-.421.655-.74.858-.32.202-.695.304-1.127.304zM21.593 20c.662 0 1.232-.094 1.712-.28.48-.188.85-.453 1.108-.795a1.96 1.96 0 0 0 .387-1.215v-.005c0-.55-.192-.985-.575-1.303-.383-.318-.997-.553-1.84-.705l-.842-.154c-.469-.085-.807-.2-1.015-.345-.208-.144-.311-.331-.311-.56v-.005a.67.67 0 0 1 .172-.46c.115-.13.275-.23.48-.301.205-.071.443-.107.715-.107a2.2 2.2 0 0 1 .737.108c.211.074.38.174.509.302a.831.831 0 0 1 .238.446l.011.059h1.57l-.006-.062a1.922 1.922 0 0 0-.426-1.057c-.25-.31-.595-.554-1.039-.732-.443-.178-.974-.268-1.594-.268-.588 0-1.11.091-1.566.273-.456.181-.814.435-1.074.762-.26.327-.391.71-.393 1.147v.005c0 .538.188.979.564 1.322.376.343.977.59 1.802.74l.841.152c.495.09.848.205 1.06.346.21.14.316.327.316.559v.005c0 .18-.063.34-.19.48-.127.139-.302.248-.527.327a2.371 2.371 0 0 1-.783.117 2.74 2.74 0 0 1-.822-.113 1.445 1.445 0 0 1-.57-.312.757.757 0 0 1-.243-.465l-.006-.046h-1.608l.006.076c.033.418.183.782.45 1.09.266.31.633.549 1.1.719.467.17 1.017.255 1.652.255z"/>
        </g>
    </g>
</svg>
