<svg xmlns="http://www.w3.org/2000/svg" width="34.853" height="40.802" viewBox="0 0 34.853 40.802">
    <path fill="#363d4a" fill-rule="evenodd" d="M57.876 227.336a8.98 8.98 0 0 0 1.977-6.624 9.578 9.578 0 0 0-6.2 3.355 8.293 8.293 0 0 0-2.029 6.46 8.08 8.08 0 0 0 6.254-3.192zm11.754 23.311a29.586 29.586 0 0 1-2.636 4.948c-1.709 2.623-4.121 5.887-7.111 5.912-2.654.027-3.339-1.741-6.943-1.718s-4.354 1.75-7.013 1.725c-2.988-.027-5.27-2.976-6.982-5.6-4.785-7.326-5.288-15.926-2.337-20.5a10.584 10.584 0 0 1 8.519-5.148c3.164 0 5.155 1.748 7.777 1.748 2.541 0 4.089-1.752 7.75-1.752a10.325 10.325 0 0 1 7.8 4.139c-6.848 3.776-5.739 13.614 1.181 16.246z" transform="translate(-34.776 -220.712)"/>
</svg>
