<svg width="16" height="16" viewBox="0 0 16 16" xmlns="http://www.w3.org/2000/svg">
    <g fill-rule="nonzero" fill="none">
        <circle fill="#6F727F" cx="8" cy="8" r="6.5"/>
        <path d="M8 16A8 8 0 0 1 8 0c.54-.002 1.08.052 1.61.16.267.06.44.32.39.59a.51.51 0 0 1-.59.39A7.41 7.41 0 0 0 8 1a7 7 0 1 0 7 7 .5.5 0 1 1 1 0 8 8 0 0 1-8 8z" fill="#6F727F"/>
        <path d="M15.27 6.59a.51.51 0 0 1-.49-.37c-.06-.24-.14-.48-.22-.71A6.86 6.86 0 0 0 14 4.3a.49.49 0 0 1 .16-.69.48.48 0 0 1 .68.16 7.46 7.46 0 0 1 .96 2.19.5.5 0 0 1-.35.61l-.18.02zM13.3 3.19a.5.5 0 0 1-.3-.14 7 7 0 0 0-1.77-1.29.49.49 0 0 1-.23-.67.5.5 0 0 1 .67-.22 7.93 7.93 0 0 1 2 1.47.5.5 0 0 1-.35.85h-.02z" fill="#6F727F"/>
        <path d="M8 8.27a.5.5 0 0 1-.5-.5V3.52A.51.51 0 0 1 8 3a.5.5 0 0 1 .5.5v4.27a.5.5 0 0 1-.5.5z" fill="#FFF"/>
        <path d="M10.21 10.55a.5.5 0 0 1-.35-.15L7.72 8.26a.5.5 0 0 1 0-.71.51.51 0 0 1 .71 0l2.14 2.15a.5.5 0 0 1-.36.85z" fill="#FFF"/>
    </g>
</svg>
