<svg width="24" height="24" viewBox="0 0 24 24" xmlns="http://www.w3.org/2000/svg">
    <g fill="none" fill-rule="evenodd">
        <path d="M0 0h24v24H0z"/>
        <path d="M12 22.853a1.78 1.78 0 0 0 1.72-1.52h-3.507A1.78 1.78 0 0 0 12 22.853zM21.9 18.753l-.227-.2A9.58 9.58 0 0 1 20 16.6a8.42 8.42 0 0 1-.9-3.207V10.1a7.28 7.28 0 0 0-.107-1.193A5 5 0 0 1 15 4v-.42a7.047 7.047 0 0 0-2.213-.667v-.84a.89.89 0 0 0-1.78 0v.874a7.207 7.207 0 0 0-6.2 7.153v3.293a8.42 8.42 0 0 1-.9 3.207 9.6 9.6 0 0 1-1.647 1.953l-.227.2v1.88H21.9v-1.88z" fill="#4684F8" fill-rule="nonzero"/>
        <circle fill="#FF942B" fill-rule="nonzero" cx="20" cy="4" r="3.333"/>
        <path d="M0 0h24v24H0z"/>
    </g>
</svg>
