<svg  width="16" height="16" viewBox="0 0 16 16" xmlns="http://www.w3.org/2000/svg" >
    <g fill="none" fill-rule="evenodd">
        <path  d="M0 0h16v16H0z"/>
        <path  d="m14.473 7.333-2.666-4.666A1.333 1.333 0 0 0 10.667 2H5.333c-.468.008-.899.26-1.133.667L1.533 7.333c-.238.413-.238.921 0 1.334L4.2 13.333c.234.406.665.66 1.133.667h5.334c.478.002.92-.252 1.16-.667l2.666-4.666a1.333 1.333 0 0 0-.02-1.334zM8 9.333a1.333 1.333 0 1 1 0-2.666 1.333 1.333 0 0 1 0 2.666z" fill="#4684F8" fill-rule="nonzero"/>
    </g>
</svg>
