<svg width="36" height="36" viewBox="0 0 36 36" xmlns="http://www.w3.org/2000/svg">
    <path d="M26.595 13.113c-.067.164-.169.31-.293.434l-3.264 3.267a1.348 1.348 0 0 1-1.908 0 1.353 1.353 0 0 1 0-1.91l.963-.96h-8.175A1.92 1.92 0 0 0 12 15.86v1.634a1.35 1.35 0 1 1-2.697 0V15.86c0-2.547 2.07-4.619 4.617-4.619h8.171l-.96-.96a1.348 1.348 0 1 1 1.908-1.908l3.264 3.264a1.368 1.368 0 0 1 .399.956c0 .18-.038.356-.106.52zm.106 7.031a4.62 4.62 0 0 1-4.617 4.615h-8.175l.963.963a1.353 1.353 0 0 1 0 1.91c-.263.263-.61.394-.954.394s-.69-.13-.954-.394l-3.267-3.267a1.35 1.35 0 0 1-.395-.956 1.378 1.378 0 0 1 .396-.956l3.266-3.265a1.353 1.353 0 0 1 1.91 0 1.355 1.355 0 0 1-.002 1.91l-.96.961h8.172c1.057 0 1.917-.86 1.917-1.915V18.51a1.351 1.351 0 0 1 2.7 0v1.635zM18 0C8.06 0 0 8.06 0 18c0 9.943 8.06 18 18 18 9.943 0 18-8.057 18-18 0-9.94-8.057-18-18-18z" fill="#4684F8" fill-rule="nonzero"/>
</svg>
