<svg width="16" height="16" viewBox="0 0 16 16" xmlns="http://www.w3.org/2000/svg">
    <path d="M7.271 15.992a.802.802 0 0 1-.738-.802v-.064a.802.802 0 0 1 .867-.73c.418.033.74.383.738.802v.064a.802.802 0 0 1-.802.738H7.27v-.008zm1.661-.802a.594.594 0 0 1 0-.2.802.802 0 0 1 1.58-.225.907.907 0 0 1 0 .2.802.802 0 0 1-.61.802.802.802 0 0 1-.2 0 .802.802 0 0 1-.77-.57v-.007zm-4.22.152a.802.802 0 0 1-.481-.722.85.85 0 0 1 .072-.337.802.802 0 0 1 1.051-.409c.296.13.486.423.481.746a.874.874 0 0 1-.064.313.802.802 0 0 1-.738.473.802.802 0 0 1-.32-.056v-.008zm6.523-.858a.802.802 0 0 1-.129-.434.802.802 0 0 1 .361-.681.802.802 0 0 1 1.107.232c.084.13.131.28.137.433a.802.802 0 0 1-.361.674.802.802 0 0 1-1.115-.225zm-8.729-.578a.802.802 0 0 1-.265-.594c.003-.2.08-.391.217-.537a.802.802 0 0 1 1.131-.048.802.802 0 0 1 .048 1.131.802.802 0 0 1-.593.265.802.802 0 0 1-.538-.217zm10.63-.802a.802.802 0 0 1-.313-.634.802.802 0 0 1 .177-.49.802.802 0 0 1 1.123-.144.802.802 0 0 1 .136 1.123.802.802 0 0 1-.626.313.802.802 0 0 1-.497-.208v.04zM.877 11.828a.802.802 0 0 1-.072-.385.802.802 0 0 1 1.508-.377.802.802 0 0 1-.32 1.083.802.802 0 0 1-.385.096.802.802 0 0 1-.73-.417zm13.639-.73a.802.802 0 0 1-.546-.762c.005-.087.022-.174.049-.257a.802.802 0 0 1 1.018-.497.802.802 0 0 1 .546.802.73.73 0 0 1-.048.257.802.802 0 0 1-.762.545.802.802 0 0 1-.273-.088h.016zM.003 9.333a.882.882 0 0 1 0-.144.802.802 0 0 1 .674-.802.802.802 0 0 1 .93.681.61.61 0 0 1 0 .12.802.802 0 0 1-.665.803H.805a.802.802 0 0 1-.802-.658zm14.344-1.308V7.97a.802.802 0 0 1 1.605 0 .802.802 0 0 1-1.605.056zM.71 7.608a.802.802 0 0 1-.674-.802H.003a.61.61 0 0 1 0-.12.802.802 0 0 1 .923-.658.802.802 0 0 1 .673.802h.009c.003.04.003.08 0 .12a.802.802 0 0 1-.803.674H.677l.032-.016zm13.318-1.725a.802.802 0 0 1-.08-.264c-.002-.345.218-.652.545-.762a.802.802 0 0 1 1.019.489c.024.083.038.17.04.257.02.357-.2.684-.538.802a.802.802 0 0 1-.264.048.802.802 0 0 1-.755-.562l.033-.008zM1.19 5.273a.802.802 0 0 1-.385-.697c0-.132.034-.261.097-.377a.802.802 0 0 1 1.09-.33.802.802 0 0 1 .32 1.083h.001a.802.802 0 0 1-.705.426.802.802 0 0 1-.418-.096v-.008zm11.794-1.259a.802.802 0 0 1-.145-.473.802.802 0 0 1 .305-.626.802.802 0 0 1 1.131.128.802.802 0 0 1-.136 1.123.802.802 0 0 1-.498.17.802.802 0 0 1-.657-.322zM2.41 3.212a.802.802 0 0 1-.209-.538.802.802 0 0 1 .257-.601.802.802 0 0 1 1.131.048.802.802 0 0 1 .217.537.802.802 0 0 1-.257.594.802.802 0 0 1-1.14-.04zm8.985-.634a.802.802 0 0 1-.233-1.107.802.802 0 0 1 1.476.441.802.802 0 0 1-.136.433.802.802 0 0 1-.666.361.802.802 0 0 1-.417-.096l-.024-.032zM4.28 1.72a.85.85 0 0 1-.072-.337.802.802 0 0 1 1.532-.313.802.802 0 0 1-.401 1.059.955.955 0 0 1-.329.064.802.802 0 0 1-.73-.473zm5.207.048a.802.802 0 0 1-.61-.802.858.858 0 0 1 0-.201.802.802 0 0 1 .995-.554c.367.091.62.425.61.803a.802.802 0 0 1 0 .2.802.802 0 0 1-.803.61.802.802 0 0 1-.192-.056zM6.509.869V.805a.802.802 0 0 1 .714-.802c.441-.037.829.29.867.73v.072a.802.802 0 0 1-.738.802h-.04A.802.802 0 0 1 6.509.87z" fill="#000" fill-rule="nonzero"/>
</svg>
