<svg width="16" height="16" viewBox="0 0 16 16" xmlns="http://www.w3.org/2000/svg">
    <g fill-rule="nonzero" fill="none">
        <path d="M8 1.6A6.407 6.407 0 0 0 1.6 8c0 3.529 2.871 6.4 6.4 6.4 3.529 0 6.4-2.871 6.4-6.4 0-3.529-2.871-6.4-6.4-6.4M8 16c-4.411 0-8-3.589-8-8s3.589-8 8-8 8 3.589 8 8-3.589 8-8 8" fill="#D0D0D0"/>
        <path d="M8 16c-4.411 0-8-3.589-8-8s3.589-8 8-8a.8.8 0 1 1 0 1.6A6.407 6.407 0 0 0 1.6 8c0 3.529 2.871 6.4 6.4 6.4 3.529 0 6.4-2.871 6.4-6.4A.8.8 0 1 1 16 8c0 4.411-3.589 8-8 8" fill="#4F4F4F"/>
    </g>
</svg>
