<svg width="16" height="16" viewBox="0 0 16 16" xmlns="http://www.w3.org/2000/svg">
    <path d="M11.037 7.837A4.963 4.963 0 0 1 16 12.8v.134a.465.465 0 0 1-.465.464h-5.098c.067-.141.108-.297.108-.464V12.8a5.574 5.574 0 0 0-2.007-4.283 4.938 4.938 0 0 1 2.5-.68zm-6.074 0 .215.004A4.963 4.963 0 0 1 9.926 12.8v.314a.285.285 0 0 1-.285.284H.285A.285.285 0 0 1 0 13.114V12.8a4.963 4.963 0 0 1 4.963-4.963zm2.638-3.2a2.638 2.638 0 1 1-5.276 0 2.638 2.638 0 0 1 5.276 0m6.074 0a2.638 2.638 0 1 1-5.276 0 2.638 2.638 0 0 1 5.276 0" fill="#4684F8" fill-rule="nonzero"/>
</svg>
