<svg width="36" height="36" viewBox="0 0 36 36" xmlns="http://www.w3.org/2000/svg">
    <path d="M24.834 17.633C31 17.633 36 22.633 36 28.8v.301c0 .576-.468 1.044-1.047 1.044h-11.47c.15-.317.243-.668.243-1.044V28.8c0-3.868-1.76-7.331-4.516-9.637a11.111 11.111 0 0 1 5.623-1.53zm-13.668 0 .293.004c6.032.155 10.874 5.093 10.874 11.163v.706a.64.64 0 0 1-.641.64H.64a.64.64 0 0 1-.642-.64V28.8c0-6.168 5-11.167 11.167-11.167zm5.935-7.199a5.935 5.935 0 1 1-11.87 0 5.935 5.935 0 0 1 11.87 0m13.668 0a5.935 5.935 0 1 1-11.87 0 5.935 5.935 0 0 1 11.87 0" fill="#4684F8" fill-rule="nonzero"/>
</svg>
