<svg width="16" height="16" viewBox="0 0 16 16" xmlns="http://www.w3.org/2000/svg">
    <g fill="none" fill-rule="evenodd">
        <path d="M0 0h16v16H0z"/>
        <path d="M4 12.667C4 13.4 4.6 14 5.333 14h5.334C11.4 14 12 13.4 12 12.667V6c0-.733-.6-1.333-1.333-1.333H5.333C4.6 4.667 4 5.267 4 6v6.667zm8-10h-1.667l-.473-.474A.672.672 0 0 0 9.393 2H6.607a.672.672 0 0 0-.467.193l-.473.474H4c-.367 0-.667.3-.667.666 0 .367.3.667.667.667h8c.367 0 .667-.3.667-.667 0-.366-.3-.666-.667-.666z" fill="#FFF" fill-rule="nonzero"/>
    </g>
</svg>
