<svg width="16" height="16" viewBox="0 0 16 16" xmlns="http://www.w3.org/2000/svg">
    <path d="M8 0c.54-.002 1.08.052 1.61.16.267.06.44.32.39.59a.51.51 0 0 1-.59.39A7.41 7.41 0 0 0 8 1a7 7 0 1 0 7 7 .5.5 0 1 1 1 0 8 8 0 1 1-8-8zm0 1.5a6.5 6.5 0 1 1 0 13 6.5 6.5 0 0 1 0-13zM8 3a.51.51 0 0 0-.5.52v4.25c0 .112.037.216.1.299a.5.5 0 0 0 .12.191l2.14 2.14a.5.5 0 0 0 .35.15.5.5 0 0 0 .36-.85L8.5 7.62V3.5A.5.5 0 0 0 8 3zm6.535.543a.48.48 0 0 1 .305.227 7.46 7.46 0 0 1 .96 2.19.5.5 0 0 1-.35.61l-.18.02a.51.51 0 0 1-.49-.37c-.06-.24-.14-.48-.22-.71A6.86 6.86 0 0 0 14 4.3a.49.49 0 0 1 .16-.69.48.48 0 0 1 .375-.067zM11.67.87a7.93 7.93 0 0 1 2 1.47.5.5 0 0 1-.35.85h-.02a.5.5 0 0 1-.3-.14 7 7 0 0 0-1.77-1.29.49.49 0 0 1-.23-.67.5.5 0 0 1 .67-.22z" fill="#4684F8" fill-rule="nonzero"/>
</svg>
