<svg width="16" height="16" viewBox="0 0 16 16" xmlns="http://www.w3.org/2000/svg">
    <path d="M11.893 8.415c.585 0 1.126.312 1.419.82l2.468 4.307a1.639 1.639 0 0 1-1.419 2.448H9.424a1.629 1.629 0 0 1-1.429-2.448l2.478-4.308a1.639 1.639 0 0 1 1.42-.819zm.43 5.396a.51.51 0 0 0-.54-.1.59.59 0 0 0-.17.1.54.54 0 0 0-.14.36.43.43 0 0 0 0 .19.54.54 0 0 0 .1.16.62.62 0 0 0 .17.11.58.58 0 0 0 .19 0 .51.51 0 0 0 .46-.31h-.04a.43.43 0 0 0 .12-.15.55.55 0 0 0-.15-.36zm-.43-3.607a.5.5 0 0 0-.5.5v2.158a.5.5 0 0 0 .5.5.51.51 0 0 0 .5-.5v-2.159a.5.5 0 0 0-.5-.5zm4.087-5.907v6.456c0 .272-.077.539-.22.77l-1.599-2.778a2.628 2.628 0 0 0-4.567 0l-1.999 3.507H1.5A1.5 1.5 0 0 1 0 10.753V4.297h15.98zM14.49 0H1.5A1.5 1.5 0 0 0 0 1.5v1.798h15.99V1.499A1.5 1.5 0 0 0 14.49 0zM2.07 1.999a.51.51 0 0 1-.35.15.55.55 0 0 1-.36-.15.52.52 0 0 1 0-.71.53.53 0 0 1 .71 0 .51.51 0 0 1 .15.36.47.47 0 0 1-.15.35zm1.609-.16a.42.42 0 0 1-.11.16.38.38 0 0 1-.16.11.58.58 0 0 1-.19 0 .51.51 0 0 1-.35-.11.57.57 0 0 1-.11-.16.65.65 0 0 1 0-.19.71.71 0 0 1 0-.2.57.57 0 0 1 .11-.16.52.52 0 0 1 .7 0 .42.42 0 0 1 .11.16.48.48 0 0 1 0 .2.43.43 0 0 1 0 .23v-.04zm1.399.16a.51.51 0 0 1-.35.15.55.55 0 0 1-.36-.15.52.52 0 0 1 0-.71.52.52 0 0 1 .71 0 .55.55 0 0 1 .15.36.51.51 0 0 1-.15.35z" fill="#4F4F4F" fill-rule="nonzero"/>
</svg>
