<svg width="16" height="16" viewBox="0 0 16 16" xmlns="http://www.w3.org/2000/svg">
    <g fill="#4684F8" fill-rule="nonzero">
        <path d="M6.157 4.91.107 2.787C.054 2.767 0 2.806 0 2.882v8.758c0 .038.018.076.054.095l6.05 2.104c.053.019.106-.02.106-.095v-8.74c.018-.056-.018-.075-.053-.094zM12.787 2.076 6.545 0h-.062L.24 2.076c-.083.021-.083.168 0 .189l6.242 2.076h.062l6.242-2.076c.083-.021.083-.147 0-.189zM10.03 8.988c-.52-3.116.655-4.182 1.913-5.455.143-.145.122-.351.068-.332L6.924 4.91a.105.105 0 0 0-.053.095v8.758c0 .057.053.114.107.095l2.128-.782a18.193 18.193 0 0 0-.186-1.656c-.214-1.965 1.11-2.432 1.11-2.432zM13.973 13.877c-.179 0-.303.151-.303.322v.929c0 .19.142.322.303.322.16 0 .303-.151.303-.322v-.929c0-.17-.142-.322-.303-.322zM12.849 13.877c-.179 0-.303.151-.303.322v1.479c0 .19.142.322.303.322.178 0 .303-.152.303-.322v-1.479c0-.17-.142-.322-.303-.322zM11.725 13.877c-.179 0-.304.151-.304.322v.929c0 .19.143.322.304.322.178 0 .303-.151.303-.322v-.929c0-.17-.143-.322-.303-.322z"/>
        <path d="m15.12 9.744-.16-.076v-1.99c0-.815-.268-1.612-.786-2.237l-.981-1.232c-.232-.304-.66-.304-.91 0l-1 1.232a3.607 3.607 0 0 0-.785 2.237v1.99l-.16.076c-.571.284-.928.929-.875 1.593l.125 1.535c.018.228.232.36.428.265a4.998 4.998 0 0 1 1.446-.473v.398c0 .151.125.284.268.284h1.998c.143 0 .268-.133.268-.284v-.398c.5.094.982.246 1.445.473.179.095.41-.037.429-.265l.125-1.535a1.627 1.627 0 0 0-.875-1.593zm-2.373-.663c-.464 0-.839-.399-.839-.891 0-.493.375-.891.839-.891.464 0 .839.398.839.89-.018.493-.375.892-.84.892z"/>
    </g>
</svg>
