<svg width="22" height="22" viewBox="0 0 22 22" xmlns="http://www.w3.org/2000/svg">
    <g fill="none" fill-rule="evenodd">
        <path d="M16 1H6a5 5 0 0 0-5 5v10a5 5 0 0 0 5 5h10a5 5 0 0 0 5-5V6a5 5 0 0 0-5-5z" fill="#FFF" fill-rule="nonzero"/>
        <path d="M16 1.313H6A4.687 4.687 0 0 0 1.312 6v10A4.688 4.688 0 0 0 6 20.688h10A4.688 4.688 0 0 0 20.688 16V6A4.688 4.688 0 0 0 16 1.312z" stroke="#E8E9EB"/>
        <path d="M16.211 11.404h-1.596v-1.21c0-.072 0-.143-.006-.213.742-.7.812-1.625.812-2.586a.408.408 0 0 0-.382-.412.4.4 0 0 0-.42.383v.018a3.546 3.546 0 0 1-.25 1.603C13.886 7.953 12.717 7.382 11 7.382a4.414 4.414 0 0 0-2.496.662 2.53 2.53 0 0 0-.846.948 3.171 3.171 0 0 1-.274-1.597.409.409 0 0 0-.381-.412.402.402 0 0 0-.422.38v.02c0 .946.066 1.852.813 2.553-.008.083-.011.17-.011.258v1.21H5.788a.409.409 0 0 0-.413.383.4.4 0 0 0 .382.42h1.625v.399c0 .462.088.92.26 1.348a2.808 2.808 0 0 0-1.062 2.25.412.412 0 0 0 .387.418.403.403 0 0 0 .417-.385v-.016a1.952 1.952 0 0 1 .656-1.54 3.625 3.625 0 0 0 2.055 1.424.402.402 0 0 0 .503-.39V9.404a.41.41 0 0 1 .382-.412.4.4 0 0 1 .42.382v6.345a.402.402 0 0 0 .503.389 3.625 3.625 0 0 0 2.054-1.425 1.947 1.947 0 0 1 .657 1.53.409.409 0 0 0 .38.412.402.402 0 0 0 .423-.379v-.023a2.808 2.808 0 0 0-1.062-2.268c.173-.429.261-.886.261-1.348v-.398h1.607a.403.403 0 0 0 .402-.402v-.02a.41.41 0 0 0-.414-.382z" fill="#F29240" fill-rule="nonzero"/>
        <path d="M12.642 7.18h.007a.397.397 0 0 0 .458-.574 2.408 2.408 0 0 0-2.102-1.236h-.01A2.406 2.406 0 0 0 8.88 6.63a.402.402 0 0 0 .472.574A5.665 5.665 0 0 1 11 6.975a6.18 6.18 0 0 1 1.643.205z" fill="#F29240" fill-rule="nonzero"/>
    </g>
</svg>
