<svg width="16" height="16" viewBox="0 0 16 16" xmlns="http://www.w3.org/2000/svg">
    <path d="M11.75 2.91h-10a.5.5 0 1 1 0-1h10a.5.5 0 1 1 0 1zM10.08 1H3.42a.5.5 0 1 1 0-1h6.66a.5.5 0 0 1 0 1zm1.69 6.53A4.24 4.24 0 0 1 16 11.76a4.23 4.23 0 1 1-4.23-4.23zm0 3.56-.197.009A2.24 2.24 0 0 0 9.53 13.33v.06c0 .083.067.15.15.15h4.16a.16.16 0 0 0 .16-.15v-.06a2.24 2.24 0 0 0-2.23-2.24zm-.24-7.25a2 2 0 0 1 2 2v1a5.18 5.18 0 0 0-6.72 6.53H2a2 2 0 0 1-2-2V5.84a2 2 0 0 1 2-2zm.24 5.23a.89.89 0 0 0-.9.89.9.9 0 1 0 .9-.89z" fill="#4F4F4F" fill-rule="nonzero"/>
</svg>
