<svg width="42" height="42" viewBox="0 0 42 42" xmlns="http://www.w3.org/2000/svg">
    <g fill="none" fill-rule="evenodd">
        <path d="M0 0h42v42H0z"/>
        <path d="M1.75 29.5c.263-3.12 1.218-5.994 2.867-8.619 1.647-2.625 3.841-4.71 6.583-6.256l-3.237-5.6a.944.944 0 0 1-.132-.831c.088-.292.277-.51.569-.657.233-.145.496-.175.787-.087.292.087.526.263.7.525l3.238 5.6A20.193 20.193 0 0 1 21 12c2.742 0 5.367.525 7.875 1.575l3.237-5.6c.175-.262.409-.438.7-.525.292-.088.555-.058.788.087.292.146.481.365.569.657a.944.944 0 0 1-.131.831l-3.238 5.6c2.742 1.546 4.937 3.631 6.585 6.256 1.648 2.625 2.602 5.498 2.865 8.619H1.75zm10.5-4.813c.613 0 1.13-.211 1.554-.635a2.11 2.11 0 0 0 .633-1.552 2.11 2.11 0 0 0-.633-1.552 2.114 2.114 0 0 0-1.554-.636c-.613 0-1.13.212-1.552.636-.424.422-.636.94-.636 1.552 0 .613.212 1.13.636 1.552.422.424.94.636 1.552.636zm17.5 0c.613 0 1.13-.211 1.554-.635a2.11 2.11 0 0 0 .634-1.552 2.11 2.11 0 0 0-.634-1.552 2.114 2.114 0 0 0-1.554-.636c-.613 0-1.13.212-1.552.636-.424.422-.636.94-.636 1.552 0 .613.212 1.13.636 1.552.422.424.94.636 1.552.636z" fill="#82CB84" fill-rule="nonzero"/>
    </g>
</svg>
