<svg width="22" height="22" viewBox="0 0 22 22" xmlns="http://www.w3.org/2000/svg">
    <g fill="none" fill-rule="evenodd">
        <path d="M16 1H6a5 5 0 0 0-5 5v10a5 5 0 0 0 5 5h10a5 5 0 0 0 5-5V6a5 5 0 0 0-5-5z" fill="#FFF" fill-rule="nonzero"/>
        <path d="M16 1.313H6A4.687 4.687 0 0 0 1.312 6v10A4.688 4.688 0 0 0 6 20.688h10A4.688 4.688 0 0 0 20.688 16V6A4.688 4.688 0 0 0 16 1.312z" stroke="#E8E9EB"/>
        <path d="m16.89 15.041-5.036-9.115a1.07 1.07 0 0 0-.938-.551h-.062a1.07 1.07 0 0 0-.938.552L4.883 15.04a1.07 1.07 0 0 0 .938 1.586h10.134a1.069 1.069 0 0 0 .937-1.586h-.002zm-4.02-3.106-3.067 3.578a.257.257 0 0 1-.45-.139.256.256 0 0 1 .018-.122l.882-2.206H9.097a.256.256 0 0 1-.24-.342l1.278-3.58a.255.255 0 0 1 .24-.17h1.79a.256.256 0 0 1 .238.351l-.883 2.206h1.157a.255.255 0 0 1 .194.422v.002z" fill="#FF0B16" fill-rule="nonzero"/>
    </g>
</svg>
