<svg width="22" height="22" viewBox="0 0 22 22" xmlns="http://www.w3.org/2000/svg">
    <g fill="none" fill-rule="evenodd">
        <path d="M16 1H6a5 5 0 0 0-5 5v10a5 5 0 0 0 5 5h10a5 5 0 0 0 5-5V6a5 5 0 0 0-5-5z" fill="#FFF" fill-rule="nonzero"/>
        <path d="M16 1.313H6A4.687 4.687 0 0 0 1.312 6v10A4.688 4.688 0 0 0 6 20.688h10A4.688 4.688 0 0 0 20.688 16V6A4.688 4.688 0 0 0 16 1.312z" stroke="#E8E9EB"/>
        <path d="M14.416 6H7.108a1.733 1.733 0 0 0-1.731 1.731v4.618a1.733 1.733 0 0 0 1.731 1.731h.577v1.539a.385.385 0 0 0 .63.295l2.2-1.833h3.9a1.733 1.733 0 0 0 1.731-1.732V7.735A1.733 1.733 0 0 0 14.416 6zm-5.962 4.807a.769.769 0 1 1 0-1.537.769.769 0 0 1 0 1.537zm2.308 0a.769.769 0 1 1 0-1.537.769.769 0 0 1 0 1.537zm2.307 0a.77.77 0 1 1 .001-1.538.77.77 0 0 1-.001 1.538z" fill="#607380" fill-rule="nonzero"/>
    </g>
</svg>
