<svg width="60" height="60" viewBox="0 0 60 60" xmlns="http://www.w3.org/2000/svg" xmlns:xlink="http://www.w3.org/1999/xlink">
    <defs>
        <filter x="-7.5%" y="-7.5%" width="115%" height="115%" filterUnits="objectBoundingBox" id="i8or299d1b">
            <feGaussianBlur stdDeviation="4" in="SourceAlpha" result="shadowBlurInner1"/>
            <feOffset dy="1" in="shadowBlurInner1" result="shadowOffsetInner1"/>
            <feComposite in="shadowOffsetInner1" in2="SourceAlpha" operator="arithmetic" k2="-1" k3="1" result="shadowInnerInner1"/>
            <feColorMatrix values="0 0 0 0 0.297119141 0 0 0 0 0 0 0 0 0 1 0 0 0 0.5 0" in="shadowInnerInner1" result="shadowMatrixInner1"/>
            <feGaussianBlur stdDeviation="1.5" in="SourceAlpha" result="shadowBlurInner2"/>
            <feOffset dy="3" in="shadowBlurInner2" result="shadowOffsetInner2"/>
            <feComposite in="shadowOffsetInner2" in2="SourceAlpha" operator="arithmetic" k2="-1" k3="1" result="shadowInnerInner2"/>
            <feColorMatrix values="0 0 0 0 1 0 0 0 0 1 0 0 0 0 1 0 0 0 0.5 0" in="shadowInnerInner2" result="shadowMatrixInner2"/>
            <feGaussianBlur stdDeviation="2" in="SourceAlpha" result="shadowBlurInner3"/>
            <feOffset dy="1" in="shadowBlurInner3" result="shadowOffsetInner3"/>
            <feComposite in="shadowOffsetInner3" in2="SourceAlpha" operator="arithmetic" k2="-1" k3="1" result="shadowInnerInner3"/>
            <feColorMatrix values="0 0 0 0 0 0 0 0 0 1 0 0 0 0 1 0 0 0 0.5 0" in="shadowInnerInner3" result="shadowMatrixInner3"/>
            <feMerge>
                <feMergeNode in="shadowMatrixInner1"/>
                <feMergeNode in="shadowMatrixInner2"/>
                <feMergeNode in="shadowMatrixInner3"/>
            </feMerge>
        </filter>
        <path d="M1.65 4.134a99.247 99.247 0 0 1 56.691 0c.989.3 1.66 1.216 1.65 2.25v12.035a44.206 44.206 0 0 1-28.346 41.244 4.537 4.537 0 0 1-3.3 0A44.206 44.206 0 0 1 0 18.419V6.384a2.325 2.325 0 0 1 1.65-2.25zm28.345 6.786c-8.282 0-14.997 6.715-14.997 14.998s6.715 14.998 14.997 14.998a14.998 14.998 0 0 0 14.998-14.998c0-8.283-6.715-14.998-14.998-14.998zm4.537 9.936a1.882 1.882 0 1 1 2.662 2.662l-8.81 8.774-4.8-5.1a1.875 1.875 0 0 1 2.662-2.624l2.175 2.4z" id="72lb7wyq6a"/>
    </defs>
    <g fill-rule="nonzero" fill="none">
        <use fill-opacity=".9" fill="#4684F8" xlink:href="#72lb7wyq6a"/>
        <use fill="#000" filter="url(#i8or299d1b)" xlink:href="#72lb7wyq6a"/>
    </g>
</svg>
