<svg width="16" height="16" viewBox="0 0 16 16" xmlns="http://www.w3.org/2000/svg">
    <path d="M14.71 2.86 8.89.187a2.215 2.215 0 0 0-1.78 0L1.29 2.86A2.125 2.125 0 0 0 0 4.815v6.265a2.135 2.135 0 0 0 1.29 1.995l5.8 2.723a2.155 2.155 0 0 0 1.82 0l5.8-2.723A2.135 2.135 0 0 0 16 11.08V4.815a2.125 2.125 0 0 0-1.29-1.955zM10.42 7.3a.51.51 0 0 1-.36.149.5.5 0 0 1-.35-.15L8.5 6.092v4.878a.5.5 0 0 1-1 0V6.172L6.29 7.379a.49.49 0 0 1-.35.14.5.5 0 0 1-.36-.14.508.508 0 0 1 0-.708l2.06-2.055a.48.48 0 0 1 .7 0l2 1.995a.508.508 0 0 1 .08.688z" fill="#4F4F4F" fill-rule="nonzero"/>
</svg>
