<svg width="16" height="17" viewBox="0 0 16 17" xmlns="http://www.w3.org/2000/svg">
    <g fill="none" fill-rule="evenodd">
        <path d="M0 0h16v16H0z"/>
        <path d="M14.852 7.857h-5.17c-.98 0-1.773-.767-1.773-1.714v-5A.145.145 0 0 0 7.761 1H4.364C3.058 1 2 2.023 2 3.286v11.428C2 15.977 3.058 17 4.364 17h8.272C13.942 17 15 15.977 15 14.714V8a.145.145 0 0 0-.148-.143zm-3.397 5.714h-5.91a.581.581 0 0 1-.59-.571c0-.316.264-.571.59-.571h5.91c.326 0 .59.255.59.571a.581.581 0 0 1-.59.571zm0-2.857h-5.91a.581.581 0 0 1-.59-.571c0-.316.264-.572.59-.572h5.91c.326 0 .59.256.59.572a.581.581 0 0 1-.59.571z" fill="#6F727F" fill-rule="nonzero"/>
        <path d="M13.1 5.893 8.608 1.4a.062.062 0 0 0-.107.044V5.5A.5.5 0 0 0 9 6h4.057a.062.062 0 0 0 .044-.107z" fill="#6F727F" fill-rule="nonzero"/>
    </g>
</svg>
