<svg width="16" height="16" viewBox="0 0 16 16" xmlns="http://www.w3.org/2000/svg">
    <g fill-rule="nonzero" fill="none">
        <path d="m9.209 5.562-1.63 1.63-.58-.64a.5.5 0 0 0-.71.7l1.28 1.36 2.35-2.34a.502.502 0 1 0-.71-.71z" fill="#FF942B"/>
        <path d="M15.558 1.102a26.466 26.466 0 0 0-15.118 0 .62.62 0 0 0-.44.6v3.21A11.788 11.788 0 0 0 7.559 15.91c.283.11.597.11.88 0a11.788 11.788 0 0 0 7.559-10.998v-3.21a.62.62 0 0 0-.44-.6zm-7.56 9.809a4 4 0 1 1 0-7.999 4 4 0 0 1 0 7.999z" fill="#4684F8"/>
    </g>
</svg>
