<svg width="16" height="17" viewBox="0 0 16 17" xmlns="http://www.w3.org/2000/svg">
    <g fill="#231F20" fill-rule="nonzero">
        <path d="M3 16.05a.5.5 0 0 1-.5-.5V9.5a.5.5 0 1 1 1 0v6a.5.5 0 0 1-.5.55zM3 7.02a.51.51 0 0 1-.5-.5V.5a.5.5 0 0 1 1 0v6a.5.5 0 0 1-.5.52zM13.66 16.05a.5.5 0 0 1-.5-.5V9.5a.5.5 0 0 1 1 0v6a.5.5 0 0 1-.5.55zM13.66 7.02a.51.51 0 0 1-.5-.5V.5a.5.5 0 0 1 1 0v6a.5.5 0 0 1-.5.52z"/>
        <path d="M3 10.02a2 2 0 1 1 0-4 2 2 0 0 1 0 4zm0-3a1 1 0 1 0 0 2 1 1 0 0 0 0-2zM8.33 4.02a2 2 0 1 1 0-4 2 2 0 0 1 0 4zm0-3a1 1 0 1 0 0 2 1 1 0 0 0 0-2zM13.66 10.02a2 2 0 1 1 0-4 2 2 0 0 1 0 4zm0-3a1 1 0 1 0 0 2 1 1 0 0 0 0-2z"/>
        <path d="M8.33 16.05a.5.5 0 0 1-.5-.5V3.5a.5.5 0 1 1 1 0v12a.5.5 0 0 1-.5.55z"/>
    </g>
</svg>
