<svg width="149" height="41" viewBox="0 0 149 41" xmlns="http://www.w3.org/2000/svg" xmlns:xlink="http://www.w3.org/1999/xlink">
    <defs>
        <path id="0i3mcdf8ja" d="M0 0h41.103v41H0z"/>
    </defs>
    <g fill="none" fill-rule="evenodd">
        <path fill="#FFF" d="M10.276 15.375h20.552v10.25H10.276z"/>
        <path d="M0 0h32.883v32.8H0z"/>
        <g>
            <mask id="p2y9m7x4db" fill="#fff">
                <use xlink:href="#0i3mcdf8ja"/>
            </mask>
            <path d="M25.041 23.98h-8.98a3.327 3.327 0 0 1-3.33-3.322 3.327 3.327 0 0 1 3.33-3.323h8.98a3.327 3.327 0 0 1 3.331 3.323 3.327 3.327 0 0 1-3.33 3.322M20.551 0C9.201 0 0 9.178 0 20.5 0 31.821 9.201 41 20.552 41c11.35 0 20.552-9.179 20.552-20.5C41.104 9.178 31.902 0 20.552 0" fill="#3662EC" mask="url(#p2y9m7x4db)"/>
        </g>
        <g fill="#FFF" fill-rule="nonzero">
            <path d="M54.805 13.884h8.65v1.306h-7.25v4.687h6.733v1.286h-6.733v5.953h-1.4zM72.504 13.884v8.149c0 1.134.355 2.067 1.065 2.798.71.732 1.62 1.098 2.733 1.098 1.1 0 2.011-.366 2.734-1.098.722-.731 1.084-1.664 1.084-2.798v-8.149h1.42v8.228c0 1.543-.487 2.795-1.459 3.758-.984.975-2.244 1.463-3.779 1.463-1.534 0-2.787-.484-3.76-1.453-.971-.97-1.457-2.225-1.457-3.768v-8.228h1.42zM89.168 25.553l.595-1.186c1.38 1.107 3.056 1.661 5.025 1.661 1.075 0 1.944-.227 2.61-.682.664-.455.997-1.085.997-1.89 0-.342-.077-.642-.23-.9a2.013 2.013 0 0 0-.566-.622c-.224-.158-.528-.297-.912-.415a10.231 10.231 0 0 0-1.026-.267c-.3-.06-.687-.122-1.16-.188-.512-.08-.934-.152-1.266-.218a8.517 8.517 0 0 1-1.247-.376c-.499-.184-.899-.395-1.199-.633-.3-.237-.563-.567-.786-.988-.224-.422-.336-.904-.336-1.444 0-1.2.444-2.123 1.333-2.77.889-.645 2.107-.968 3.654-.968 1.663 0 3.236.382 4.719 1.147l-.575 1.167c-1.343-.7-2.73-1.049-4.163-1.049-1.15 0-2.027.215-2.628.643-.601.429-.902 1.012-.902 1.75 0 .41.103.762.307 1.059.205.296.506.534.902.712.396.178.774.313 1.132.405.358.093.812.178 1.362.257.434.066.764.119.988.159.223.04.546.108.968.207.422.1.752.198.988.297.237.099.508.244.815.435.307.191.54.399.7.623.16.224.301.501.422.83.122.33.183.693.183 1.088 0 1.306-.483 2.285-1.449 2.938-.965.652-2.221.979-3.769.979-2.135 0-3.964-.587-5.486-1.76zM107.788 27.116V13.884h1.42v13.232zM119.1 15.625c1.24-1.306 2.788-1.958 4.643-1.958 1.854 0 3.395.652 4.622 1.958 1.228 1.305 1.842 2.933 1.842 4.885 0 1.951-.614 3.576-1.842 4.875-1.227 1.299-2.768 1.948-4.622 1.948-1.867 0-3.418-.649-4.652-1.948s-1.851-2.924-1.851-4.875c0-1.952.62-3.58 1.86-4.885zm-.46 4.885c0 1.53.492 2.825 1.477 3.886.985 1.062 2.193 1.592 3.626 1.592 1.419 0 2.618-.53 3.596-1.592.979-1.061 1.468-2.357 1.468-3.886 0-1.543-.49-2.845-1.468-3.906-.978-1.062-2.177-1.592-3.596-1.592-1.433 0-2.641.53-3.626 1.592-.985 1.061-1.477 2.363-1.477 3.906zM138.296 27.116V13.884h1.343l8 10.938V13.884H149v13.232h-1.304l-8.038-10.938v10.938z"/>
        </g>
    </g>
</svg>
