<svg width="16" height="16" viewBox="0 0 16 16" xmlns="http://www.w3.org/2000/svg">
    <g fill="none" fill-rule="evenodd">
        <path d="M0 0h16v16H0z"/>
        <path d="M6.667 9.067 10.6 5.133a.632.632 0 0 1 .467-.183c.189 0 .344.061.466.183a.632.632 0 0 1 .184.467.632.632 0 0 1-.184.467l-4.4 4.4a.64.64 0 0 1-.466.2.64.64 0 0 1-.467-.2L4.467 8.733a.632.632 0 0 1-.184-.466c0-.19.061-.345.184-.467a.632.632 0 0 1 .466-.183c.19 0 .345.06.467.183l1.267 1.267z" fill="#FFF" fill-rule="nonzero"/>
    </g>
</svg>
