<svg width="16" height="16" viewBox="0 0 16 16" xmlns="http://www.w3.org/2000/svg">
    <g fill="none" fill-rule="evenodd">
        <path d="M0 0h16v16H0z"/>
        <path d="M7.333 13.333h-3c-1.01 0-1.875-.35-2.591-1.05-.717-.7-1.075-1.555-1.075-2.566 0-.867.26-1.64.783-2.317A3.465 3.465 0 0 1 3.5 6.1a4.525 4.525 0 0 1 1.667-2.483A4.561 4.561 0 0 1 8 2.667c1.3 0 2.403.452 3.308 1.358.906.905 1.359 2.008 1.359 3.308.766.09 1.403.42 1.908.992a2.94 2.94 0 0 1 .758 2.008c0 .834-.291 1.542-.874 2.126a2.895 2.895 0 0 1-2.126.874H8.667V8.567L9.733 9.6l.934-.933L8 6 5.333 8.667l.934.933 1.066-1.033v4.766z" fill="#4684F8" fill-rule="nonzero"/>
    </g>
</svg>
