<svg width="32" height="32" viewBox="0 0 32 32" xmlns="http://www.w3.org/2000/svg">
    <g fill="none" fill-rule="evenodd">
        <path d="M0 0h32v32H0z"/>
        <path d="m13.333 18.133 7.867-7.866c.244-.245.556-.367.933-.367.378 0 .69.122.934.367.244.244.366.555.366.933s-.122.689-.366.933l-8.8 8.8a1.28 1.28 0 0 1-.934.4 1.28 1.28 0 0 1-.933-.4l-3.467-3.466c-.244-.245-.366-.556-.366-.934 0-.377.122-.689.366-.933.245-.244.556-.367.934-.367.377 0 .689.123.933.367l2.533 2.533z" fill="#4684F8" fill-rule="nonzero"/>
    </g>
</svg>
