<svg width="17" height="16" viewBox="0 0 17 16" xmlns="http://www.w3.org/2000/svg">
    <g fill="none" fill-rule="evenodd">
        <path d="M.349 0h16v16h-16z"/>
        <path d="M5.682 9.333a.646.646 0 0 1-.475-.192.645.645 0 0 1-.192-.474c0-.19.064-.348.192-.476A.647.647 0 0 1 5.682 8c.189 0 .347.064.475.191a.647.647 0 0 1 .192.476.645.645 0 0 1-.192.474.646.646 0 0 1-.475.192zm2.667 0a.643.643 0 0 1-.475-.192.643.643 0 0 1-.192-.474c0-.19.064-.348.192-.476A.645.645 0 0 1 8.349 8c.189 0 .347.064.475.191a.647.647 0 0 1 .191.476.645.645 0 0 1-.191.474.646.646 0 0 1-.475.192zm2.666 0a.643.643 0 0 1-.474-.192.643.643 0 0 1-.192-.474c0-.19.064-.348.192-.476A.645.645 0 0 1 11.015 8c.19 0 .347.064.475.191a.646.646 0 0 1 .192.476.643.643 0 0 1-.192.474.643.643 0 0 1-.475.192zm-7.333 5.334c-.367 0-.68-.13-.942-.392a1.286 1.286 0 0 1-.391-.942V4c0-.367.13-.68.391-.941.261-.262.575-.392.942-.392h.667V1.333h1.333v1.334h5.333V1.333h1.334v1.334h.666c.367 0 .681.13.942.392.261.26.392.574.392.941v9.333c0 .367-.13.681-.392.942-.261.261-.575.392-.942.392H3.682zm0-1.334h9.333V6.667H3.682v6.666z" fill="#ABB1B7" fill-rule="nonzero"/>
    </g>
</svg>
