<svg width="32" height="32" viewBox="0 0 32 32" xmlns="http://www.w3.org/2000/svg">
    <g fill="none" fill-rule="evenodd">
        <path d="M0 0h32v32H0z"/>
        <path d="M16 21.333c.378 0 .695-.128.95-.384a1.29 1.29 0 0 0 .383-.949v-4.267l1.2 1.2c.245.245.556.367.934.367.377 0 .689-.122.933-.367.244-.244.367-.555.367-.933s-.123-.689-.367-.933L16.933 11.6a1.177 1.177 0 0 0-.433-.284 1.486 1.486 0 0 0-.5-.083c-.178 0-.344.028-.5.083-.156.056-.3.15-.433.284L11.6 15.067c-.244.244-.367.555-.367.933s.123.689.367.933c.244.245.556.367.933.367.378 0 .69-.122.934-.367l1.2-1.2V20c0 .378.128.694.384.95.255.255.571.383.949.383zm0 8c-1.844 0-3.578-.35-5.2-1.05a13.455 13.455 0 0 1-4.233-2.85c-1.2-1.2-2.15-2.61-2.85-4.233-.7-1.622-1.05-3.356-1.05-5.2 0-1.844.35-3.578 1.05-5.2.7-1.622 1.65-3.033 2.85-4.233 1.2-1.2 2.61-2.15 4.233-2.851 1.622-.7 3.356-1.05 5.2-1.05 1.844 0 3.578.35 5.2 1.05 1.622.7 3.033 1.65 4.233 2.85 1.2 1.2 2.15 2.612 2.85 4.234.7 1.622 1.05 3.356 1.05 5.2 0 1.844-.35 3.578-1.05 5.2a13.455 13.455 0 0 1-2.85 4.233c-1.2 1.2-2.61 2.15-4.233 2.85-1.622.7-3.356 1.05-5.2 1.05z" fill="#B6B6B6" fill-rule="nonzero"/>
    </g>
</svg>
