<svg width="16" height="16" viewBox="0 0 16 16" xmlns="http://www.w3.org/2000/svg">
    <g fill="none" fill-rule="evenodd">
        <path d="M0 0h16v16H0z"/>
        <path d="M6 12c-.367 0-.68-.13-.941-.391a1.284 1.284 0 0 1-.392-.942v-8c0-.367.13-.681.392-.942.26-.261.574-.392.941-.392h6c.367 0 .68.13.942.392.26.261.391.575.391.942v8c0 .366-.13.68-.391.942-.261.26-.575.391-.942.391H6zm-2.667 2.667c-.366 0-.68-.13-.942-.392A1.286 1.286 0 0 1 2 13.333V4.667c0-.19.064-.348.192-.476A.645.645 0 0 1 2.667 4c.189 0 .347.064.475.191a.647.647 0 0 1 .191.476v8.666H10c.189 0 .347.064.475.192a.645.645 0 0 1 .192.475.645.645 0 0 1-.192.475.646.646 0 0 1-.475.192H3.333z" fill="#4684F8" fill-rule="nonzero"/>
    </g>
</svg>
