<svg width="16" height="16" viewBox="0 0 16 16" xmlns="http://www.w3.org/2000/svg">
    <g fill="#4684F8" fill-rule="nonzero">
        <path d="M0 5.76v1.167a.191.191 0 0 0 .1.17l7.816 3.77c.051.021.108.021.16 0l7.815-3.77c.063-.033.101-.099.1-.17V5.76L8.056 9.58a.179.179 0 0 1-.16 0L0 5.76z"/>
        <path d="M0 8.334V9.5a.181.181 0 0 0 .11.171l7.796 3.77c.055.02.115.02.17 0l7.795-3.77a.181.181 0 0 0 .12-.17V8.333l-7.925 3.82a.248.248 0 0 1-.17 0L0 8.335z"/>
        <path d="M0 10.898v1.146a.181.181 0 0 0 .11.17l7.796 3.771c.055.02.115.02.17 0l7.795-3.77a.181.181 0 0 0 .12-.171v-1.146l-7.925 3.82a.248.248 0 0 1-.17 0L0 10.898zM.15 4.212 7.866.03a.318.318 0 0 1 .27 0l7.715 4.182a.262.262 0 0 1 0 .473L8.096 8.284a.308.308 0 0 1-.23 0L.17 4.684a.261.261 0 0 1-.02-.472z"/>
    </g>
</svg>
