<svg width="16" height="16" viewBox="0 0 16 16" xmlns="http://www.w3.org/2000/svg">
    <path d="m5.825 2.15.53-1.36A1.21 1.21 0 0 1 7.495 0h1a1.21 1.21 0 0 1 1.16.79l.53 1.36 1.8 1 1.44-.15a1.22 1.22 0 0 1 1.23.6l.5.86c.255.44.215.991-.1 1.39l-.9 1.15v2l.92 1.15c.32.397.36.951.1 1.39l-.49.86a1.23 1.23 0 0 1-1.23.6l-1.45-.22-1.8 1-.55 1.43a1.22 1.22 0 0 1-1.13.79h-1a1.21 1.21 0 0 1-1.14-.79l-.53-1.36-1.8-1-1.48.15a1.22 1.22 0 0 1-1.23-.6l-.5-.86a1.26 1.26 0 0 1 .1-1.39l.9-1.15V7l-.92-1.18a1.22 1.22 0 0 1-.1-1.39l.49-.86A1.23 1.23 0 0 1 2.545 3l1.46.22 1.82-1.07zM5.535 8a2.47 2.47 0 1 0 4.94.02A2.47 2.47 0 0 0 5.535 8z" fill="#4F4F4F" fill-rule="nonzero"/>
</svg>
