<svg width="16" height="16" viewBox="0 0 16 16" xmlns="http://www.w3.org/2000/svg">
    <path d="M8 0a8 8 0 1 0 8 8 8.009 8.009 0 0 0-8-8zm0 13a1 1 0 1 1 0-2 1 1 0 0 1 0 2zm1-8.16L8.736 9.4a.548.548 0 0 1-.216.424A.828.828 0 0 1 8 10a.828.828 0 0 1-.52-.175.549.549 0 0 1-.215-.424L7 4.841a.679.679 0 0 1 .065-.32.814.814 0 0 1 .214-.273c.094-.078.205-.14.329-.183a1.2 1.2 0 0 1 .78 0c.124.042.236.105.329.183a.814.814 0 0 1 .214.273c.048.102.07.21.066.32L9 4.839z" fill="#FF5E5E" fill-rule="nonzero"/>
</svg>
