<svg width="12" height="12" viewBox="0 0 12 12" xmlns="http://www.w3.org/2000/svg">
    <path d="M6.535 8.284a1.26 1.26 0 0 0-1.258 1.258A1.26 1.26 0 0 0 6.535 10.8h3.007a1.259 1.259 0 0 0 0-2.516H6.535zM9.542 12H6.535a2.46 2.46 0 0 1-2.458-2.458 2.461 2.461 0 0 1 2.458-2.458h3.007A2.46 2.46 0 0 1 12 9.542 2.46 2.46 0 0 1 9.542 12zm-6.895-1.858h-1.15A1.5 1.5 0 0 1 0 8.644V.6a.6.6 0 1 1 1.2 0v8.044c0 .164.134.298.298.298h1.15a.6.6 0 1 1 0 1.2m5.39-4.471a.6.6 0 0 1-.6-.6V.6a.6.6 0 1 1 1.2 0V5.07a.6.6 0 0 1-.6.6m2.236-2.235h-4.47a.6.6 0 1 1 0-1.2h4.47a.6.6 0 1 1 0 1.2" fill="#000" fill-rule="nonzero"/>
</svg>
