<svg width="42" height="42" viewBox="0 0 42 42" xmlns="http://www.w3.org/2000/svg">
    <g fill-rule="nonzero" fill="none">
        <path d="M36.75 0H5.25A5.25 5.25 0 0 0 0 5.25v23.1c0 2.9 2.35 5.25 5.25 5.25h31.5c2.9 0 5.25-2.35 5.25-5.25V5.25C42 2.35 39.65 0 36.75 0zm-8.925 13.676-9.03 9.03-4.62-4.62c-.5-.51-.5-1.327 0-1.837a1.312 1.312 0 0 1 1.864 0l2.625 2.625 7.297-7.061a1.318 1.318 0 1 1 1.864 1.863z" fill="#4684F8"/>
        <path d="M34.703 41.79H7.298a1.313 1.313 0 0 1 0-2.625h27.405a1.313 1.313 0 0 1 0 2.625z" fill="#FF942B"/>
    </g>
</svg>
