<svg width="12" height="12" viewBox="0 0 12 12" xmlns="http://www.w3.org/2000/svg">
    <path d="M3.861 4.942A2.472 2.472 0 0 0 5.607.722a2.473 2.473 0 0 0-4.218 1.755 2.471 2.471 0 0 0 2.472 2.465zm0-3.737a1.272 1.272 0 1 1-1.272 1.272 1.265 1.265 0 0 1 1.272-1.272zm.12 4.45a3.944 3.944 0 0 1 1.692.402.6.6 0 0 1 .276.804.6.6 0 0 1-.786.275 2.785 2.785 0 0 0-1.2-.281 2.735 2.735 0 0 0-2.76 2.704V11.4a.6.6 0 0 1-1.2 0V9.553a3.941 3.941 0 0 1 3.936-3.898zm4.722-.252a.6.6 0 0 1 .6.6v2.099h2.1a.6.6 0 1 1 0 1.2h-2.1V11.4a.6.6 0 0 1-1.2 0V9.301h-2.1a.6.6 0 1 1 0-1.199h2.1V6.003a.6.6 0 0 1 .6-.6z" fill="#000" fill-rule="nonzero"/>
</svg>
