<svg width="16" height="16" viewBox="0 0 16 16" xmlns="http://www.w3.org/2000/svg">
    <path d="M14.464 1.553a5.292 5.292 0 0 0-7.49 0l-.8.802-5.027 4.96a3.844 3.844 0 0 0-.008 5.475 3.817 3.817 0 0 0 5.412 0l4.987-4.993.88-.883a2.34 2.34 0 0 0 .695-1.67 2.408 2.408 0 0 0-1.467-2.112 2.39 2.39 0 0 0-2.53.427L4.44 8.182a.805.805 0 0 0 .354 1.345.797.797 0 0 0 .773-.205l4.652-4.655a.797.797 0 0 1 1.08 0c.139.145.218.337.223.538a.732.732 0 0 1-.224.537l-4.652 4.64-1.222 1.244c-.641.641-1.605.83-2.439.479a2.24 2.24 0 0 1-1.366-2.085 2.204 2.204 0 0 1 .655-1.605l.248-.249 5.595-5.578a3.69 3.69 0 0 1 4.036-.766 3.717 3.717 0 0 1 2.255 3.447 3.668 3.668 0 0 1-1.087 2.625l-6.738 6.734A.805.805 0 0 0 7.15 16c.21 0 .41-.084.56-.233l6.738-6.742A5.316 5.316 0 0 0 16 5.27c0-1.41-.559-2.761-1.552-3.756l.016.04z" fill="#000" fill-rule="nonzero"/>
</svg>
