<svg width="100" height="100" viewBox="0 0 100 100" xmlns="http://www.w3.org/2000/svg">
    <g fill="none" fill-rule="evenodd">
        <path d="M20.994 16.86c-.313.744-.744 1.431-1.313 1.994a6.298 6.298 0 0 1-2.062 1.381c-.744.313-1.563.431-2.375.431-.813 0-1.625-.118-2.375-.431a6.363 6.363 0 0 1-2.063-1.381c-.562-.563-1-1.25-1.312-1.994a6.298 6.298 0 0 1-.5-2.444c0-1.618.687-3.243 1.812-4.375 1.444-1.431 3.625-2.125 5.688-1.743.381.118.75.25 1.125.368.381.194.75.382 1.131.563.306.25.619.5.931.812a6.3 6.3 0 0 1 1.813 4.375c0 .882-.181 1.694-.5 2.444M55.969-.002H11.294C5.056-.002 0 6.054 0 13.523v72.956c0 7.469 5.056 13.519 11.294 13.519h44.675c6.243 0 11.3-6.05 11.3-13.52V13.524c0-7.47-5.057-13.525-11.3-13.525" fill="#4684F8" fill-rule="nonzero"/>
        <path d="M99.998 50c0 15.85-12.85 28.7-28.7 28.7-15.844 0-28.694-12.85-28.694-28.7s12.85-28.7 28.694-28.7c15.85 0 28.7 12.85 28.7 28.7" fill="#90B5FB" fill-rule="nonzero"/>
        <path d="M83.47 43.75h-5.92v-5.92c0-3.456-2.8-6.25-6.25-6.25a6.244 6.244 0 0 0-6.25 6.25v5.92h-5.918a6.248 6.248 0 0 0-6.25 6.25c0 3.456 2.8 6.25 6.25 6.25h5.919v5.918a6.244 6.244 0 0 0 6.25 6.25c3.45 0 6.25-2.794 6.25-6.25V56.25h5.918A6.244 6.244 0 0 0 89.72 50a6.244 6.244 0 0 0-6.25-6.25" fill="#FFF"/>
    </g>
</svg>
