<svg width="28" height="28" viewBox="0 0 28 28" xmlns="http://www.w3.org/2000/svg">
    <g fill="none" fill-rule="evenodd">
        <path d="M5.878 4.72a1.712 1.712 0 0 1-1.61 1.067c-.227 0-.455-.034-.665-.121-.21-.09-.4-.21-.577-.387a1.74 1.74 0 0 1-.368-.558 1.763 1.763 0 0 1-.14-.684c0-.454.193-.909.508-1.225a1.826 1.826 0 0 1 1.592-.489c.107.034.21.07.315.104.107.054.21.106.317.157.086.07.173.14.26.228a1.732 1.732 0 0 1 .368 1.91m9.793-4.723H3.162C1.416 0 0 1.695 0 3.786v20.428C0 26.305 1.416 28 3.162 28h12.51c1.747 0 3.163-1.694 3.163-3.785V3.786C18.835 1.696 17.42 0 15.671 0" fill="#4684F8" fill-rule="nonzero"/>
        <path d="M28 14a8.036 8.036 0 1 1-16.073 0 8.036 8.036 0 0 1 16.072 0" fill="#90B5FB" fill-rule="nonzero"/>
        <path d="M23.371 12.25h-1.657v-1.657a1.75 1.75 0 1 0-3.5 0v1.657h-1.657a1.75 1.75 0 1 0 0 3.5h1.657v1.657a1.75 1.75 0 1 0 3.5 0V15.75h1.657c.968 0 1.75-.782 1.75-1.75s-.782-1.75-1.75-1.75" fill="#FFF"/>
    </g>
</svg>
