<svg width="28" height="28" viewBox="0 0 28 28" xmlns="http://www.w3.org/2000/svg">
    <g fill-rule="nonzero" fill="none">
        <path d="M17.16 9.056H5.59a1.757 1.757 0 0 1-1.766-1.75c0-.968.79-1.75 1.766-1.75h11.57c.976 0 1.766.782 1.766 1.75s-.79 1.75-1.766 1.75m-4.637 6.111H5.59a1.757 1.757 0 0 1-1.766-1.75c0-.968.79-1.75 1.766-1.75h6.933c.977 0 1.766.782 1.766 1.75s-.79 1.75-1.766 1.75M19.217 0H3.533C1.583 0 0 1.568 0 3.5v20.265C0 26.105 1.915 28 4.274 28H22.75V3.5c0-1.932-1.58-3.5-3.533-3.5" fill="#4684F8"/>
        <path d="M23.573 19.53H8.36c-.737 0-1.137.877-.65 1.437a4.247 4.247 0 0 1 1.04 2.795c0 2.192-1.643 3.997-3.748 4.215-.022.004-.024.023-.002.023h18.824a4.087 4.087 0 0 0 2.95-1.242c.837-.832 1.319-2.046 1.21-3.362-.185-2.235-2.2-3.866-4.412-3.866" fill="#90B5FB"/>
    </g>
</svg>
