<svg width="12" height="12" viewBox="0 0 12 12" xmlns="http://www.w3.org/2000/svg">
    <path d="M10.8 1.985 6.87.185a2.058 2.058 0 0 0-1.704 0l-3.918 1.8A2.04 2.04 0 0 0 0 3.85v4.242a2.04 2.04 0 0 0 1.2 1.866L5.118 11.8a2.07 2.07 0 0 0 1.74 0L10.8 9.959A2.034 2.034 0 0 0 12 8.093V3.85a2.034 2.034 0 0 0-1.2-1.866zM5.646 1.27a.84.84 0 0 1 .708 0l3.552 1.632L6 4.475 2.1 2.903 5.646 1.27zM1.704 8.86a.834.834 0 0 1-.504-.768v-4.26l4.2 1.692V10.6L1.704 8.86zm9.096-.768a.834.834 0 0 1-.504.768L6.6 10.6V5.525l4.2-1.686v4.254z" fill="#000" fill-rule="nonzero"/>
</svg>
