<svg width="24" height="24" viewBox="0 0 24 24" xmlns="http://www.w3.org/2000/svg">
    <g fill-rule="nonzero" fill="none">
        <path d="M22.913 5.871 12.36 9.836a1.01 1.01 0 0 1-.717 0L1.087 5.87c-.846-.318-.846-1.524 0-1.842L11.642.065c.23-.087.486-.087.717 0l10.554 3.964c.845.318.845 1.524 0 1.842" fill="#90B5FB"/>
        <path d="m23.39 20.183-9.494 3.748a.975.975 0 0 1-1.33-.916l.016-11.467c0-.396.241-.752.607-.897l9.483-3.744A.974.974 0 0 1 24 7.822l-.014 11.483a.947.947 0 0 1-.595.878m-22.769.005 9.483 3.743a.974.974 0 0 0 1.328-.915l-.014-11.469a.964.964 0 0 0-.607-.896L1.329 6.907a.975.975 0 0 0-1.33.916L.016 19.29c0 .397.241.752.607.898" fill="#4684F8"/>
    </g>
</svg>
