<svg width="24" height="24" viewBox="0 0 24 24" xmlns="http://www.w3.org/2000/svg">
    <g fill="none" fill-rule="evenodd">
        <path d="M2.734 24A2.732 2.732 0 0 1 0 21.27a2.732 2.732 0 0 1 2.734-2.73 2.732 2.732 0 0 1 2.733 2.73A2.732 2.732 0 0 1 2.734 24m20.708-9.372a1.912 1.912 0 0 0-2.89.223 23.85 23.85 0 0 1-2.289 2.653l-2.717 2.713a1.935 1.935 0 0 0 0 2.737 1.942 1.942 0 0 0 2.741 0l2.717-2.713a24.001 24.001 0 0 0 2.63-3.122 1.932 1.932 0 0 0-.192-2.491M9.582.557c.83.828.717 2.187-.223 2.885a23.866 23.866 0 0 0-2.657 2.286L3.984 8.441a1.942 1.942 0 0 1-2.74 0 1.935 1.935 0 0 1 0-2.737L3.96 2.991A24.02 24.02 0 0 1 7.087.365a1.939 1.939 0 0 1 2.495.192" fill="#90B5FB"/>
        <path d="M14.975 11.686a2.742 2.742 0 0 1-2.744-2.74 2.742 2.742 0 0 1 2.744-2.74 2.742 2.742 0 0 1 2.744 2.74 2.742 2.742 0 0 1-2.744 2.74M22.864 1.15A3.862 3.862 0 0 0 19.179.14 24.66 24.66 0 0 0 7.851 6.584l-4.486 4.478a3.548 3.548 0 0 0 0 5.023l4.54 4.533a3.56 3.56 0 0 0 5.03 0l4.486-4.478a24.606 24.606 0 0 0 6.453-11.31 3.85 3.85 0 0 0-1.01-3.68" fill="#4684F8" fill-rule="nonzero"/>
    </g>
</svg>
