<svg width="18" height="18" viewBox="0 0 18 18" xmlns="http://www.w3.org/2000/svg">
    <path d="M12.106 8.833a5.076 5.076 0 0 1 5.076 5.076v.137a.475.475 0 0 1-.475.474h-5.214a1.1 1.1 0 0 0 .11-.474v-.137c0-1.758-.8-3.332-2.052-4.38a5.05 5.05 0 0 1 2.555-.696zm-6.212 0 .214.005a5.076 5.076 0 0 1 4.861 5.07v.322c0 .16-.13.29-.291.29H1.109a.291.291 0 0 1-.291-.29v-.321a5.076 5.076 0 0 1 5.076-5.076zM8.59 5.561a2.698 2.698 0 1 1-5.395 0 2.698 2.698 0 0 1 5.395 0m6.213 0a2.698 2.698 0 1 1-5.396 0 2.698 2.698 0 0 1 5.396 0" fill="#4684F8" fill-rule="nonzero"/>
</svg>
