<svg width="12" height="12" viewBox="0 0 12 12" xmlns="http://www.w3.org/2000/svg">
    <path d="M9 3.6a3 3 0 0 1 3 3V9a3 3 0 0 1-3 3H6.6a3 3 0 0 1-3-3V6.6a3 3 0 0 1 3-3zm0 1.2H6.6a1.8 1.8 0 0 0-1.8 1.8V9a1.8 1.8 0 0 0 1.8 1.8H9A1.8 1.8 0 0 0 10.8 9V6.6A1.8 1.8 0 0 0 9 4.8zM3.284.073A4.038 4.038 0 0 1 7.548 2.04a.6.6 0 0 1-1.044.594A2.856 2.856 0 0 0 4.038 1.2a2.838 2.838 0 0 0-1.284 5.4.6.6 0 0 1-.27 1.104.6.6 0 0 1-.276-.066A4.038 4.038 0 0 1 3.284.073z" fill="#000" fill-rule="nonzero"/>
</svg>
