<svg width="16" height="16" viewBox="0 0 16 16" xmlns="http://www.w3.org/2000/svg">
    <path d="M11.82 5.828a.592.592 0 0 1-.13.193l-1.451 1.452a.6.6 0 1 1-.848-.849l.428-.427H6.186a.854.854 0 0 0-.853.852v.726a.6.6 0 1 1-1.199 0v-.726c0-1.132.92-2.053 2.052-2.053h3.632l-.427-.427a.6.6 0 0 1 .848-.848l1.451 1.451a.608.608 0 0 1 .177.425c0 .08-.017.158-.047.231zm.047 3.125c0 1.131-.92 2.051-2.052 2.051H6.182l.428.428a.601.601 0 0 1-.848.849L4.31 10.829a.6.6 0 0 1 0-.85l1.452-1.451a.601.601 0 0 1 .848.849l-.427.427h3.632c.47 0 .852-.382.852-.851v-.727a.6.6 0 0 1 1.2 0v.727zM8 0a8 8 0 1 0 0 16A8 8 0 0 0 8 0z" fill="#4684F8" fill-rule="nonzero"/>
</svg>
