<svg width="12" height="12" viewBox="0 0 12 12" xmlns="http://www.w3.org/2000/svg">
    <path d="M9.762 12H2.238a.6.6 0 0 1 0-1.2h7.524a.6.6 0 1 1 0 1.2zM10.2 0A1.8 1.8 0 0 1 12 1.8v6.228a1.8 1.8 0 0 1-1.8 1.8H1.8a1.8 1.8 0 0 1-1.8-1.8V1.8A1.8 1.8 0 0 1 1.8 0h8.4zm0 1.2H1.8a.6.6 0 0 0-.6.6v6.228a.6.6 0 0 0 .6.6h8.4a.6.6 0 0 0 .6-.6V1.8a.6.6 0 0 0-.6-.6zM7.688 3.257a.6.6 0 0 1 .25 1.039L5.856 6.378a.6.6 0 0 1-.846 0l-.948-.948a.6.6 0 0 1 .778-.913l.59.589L7.092 3.45a.6.6 0 0 1 .596-.193z" fill="#000" fill-rule="nonzero"/>
</svg>
