<svg width="32" height="32" viewBox="0 0 32 32" xmlns="http://www.w3.org/2000/svg">
    <g fill-rule="nonzero" fill="none">
        <path d="M0 21.507a2.998 2.998 0 0 0 2.998 2.998h12.193l3.997-7.016a5.257 5.257 0 0 1 9.134 0l3.198 5.557c.286-.463.439-.996.44-1.54V8.596H0v12.912zM28.982 0H2.998A2.998 2.998 0 0 0 0 2.998v3.598h31.98V2.998A2.998 2.998 0 0 0 28.982 0zM4.137 3.998a1.02 1.02 0 0 1-.7.3 1.1 1.1 0 0 1-.719-.3 1 1 0 0 1-.28-.7 1.04 1.04 0 0 1 .28-.72 1.06 1.06 0 0 1 1.42 0c.19.191.299.45.3.72a.94.94 0 0 1-.3.7zm3.218-.32a.84.84 0 0 1-.22.32.76.76 0 0 1-.32.22 1.16 1.16 0 0 1-.379 0 1.02 1.02 0 0 1-.7-.22 1.14 1.14 0 0 1-.22-.32 1.3 1.3 0 0 1 0-.38 1.42 1.42 0 0 1 0-.4 1.14 1.14 0 0 1 .22-.32 1.04 1.04 0 0 1 1.4 0 .84.84 0 0 1 .22.32.96.96 0 0 1 0 .4.86.86 0 0 1 0 .46v-.08zm2.799.32a1.02 1.02 0 0 1-.7.3 1.1 1.1 0 0 1-.72-.3 1 1 0 0 1-.28-.7 1.04 1.04 0 0 1 .28-.72 1.04 1.04 0 0 1 1.42 0 1.1 1.1 0 0 1 .3.72 1.02 1.02 0 0 1-.3.7z" fill="#4684F8"/>
        <path d="m31.56 27.083-4.937-8.615a3.278 3.278 0 0 0-5.676 0l-4.957 8.615a3.258 3.258 0 0 0 2.858 4.897h9.874a3.278 3.278 0 0 0 2.838-4.897zm-8.774-5.676a1 1 0 1 1 1.999 0v4.317a1.02 1.02 0 0 1-1 1 1 1 0 0 1-1-1v-4.317zm1.999 7.235a1.14 1.14 0 0 1-.22.32 1.02 1.02 0 0 1-.7.3 1.16 1.16 0 0 1-.38 0 1.24 1.24 0 0 1-.34-.22 1.08 1.08 0 0 1-.2-.32.86.86 0 0 1 0-.38 1.08 1.08 0 0 1 .28-.72 1.18 1.18 0 0 1 .34-.2 1.02 1.02 0 0 1 1.08.2 1.1 1.1 0 0 1 .3.72.86.86 0 0 1-.24.3h.08z" fill="#FF942B"/>
    </g>
</svg>
