<svg width="32" height="32" viewBox="0 0 32 32" xmlns="http://www.w3.org/2000/svg">
    <g fill-rule="nonzero" fill="none">
        <path d="m18.417 11.123-3.26 3.26-1.16-1.28a1 1 0 0 0-1.419 1.4l2.56 2.72 4.699-4.68a1.004 1.004 0 1 0-1.42-1.42z" fill="#FF942B"/>
        <path d="M31.115 2.205a52.932 52.932 0 0 0-30.235 0 1.24 1.24 0 0 0-.88 1.2v6.419A23.576 23.576 0 0 0 15.118 31.82a2.42 2.42 0 0 0 1.76 0A23.576 23.576 0 0 0 31.994 9.824v-6.42a1.24 1.24 0 0 0-.88-1.2zM15.998 21.822a7.999 7.999 0 1 1 0-15.998 7.999 7.999 0 0 1 0 15.998z" fill="#4684F8"/>
    </g>
</svg>
