<svg width="24" height="24" viewBox="0 0 24 24" xmlns="http://www.w3.org/2000/svg" xmlns:xlink="http://www.w3.org/1999/xlink">
    <defs>
        <filter x="-18.8%" y="-18.8%" width="137.5%" height="137.5%" filterUnits="objectBoundingBox" id="fprx4it3hb">
            <feGaussianBlur stdDeviation="4" in="SourceAlpha" result="shadowBlurInner1"/>
            <feOffset dy="1" in="shadowBlurInner1" result="shadowOffsetInner1"/>
            <feComposite in="shadowOffsetInner1" in2="SourceAlpha" operator="arithmetic" k2="-1" k3="1" result="shadowInnerInner1"/>
            <feColorMatrix values="0 0 0 0 0.297119141 0 0 0 0 0 0 0 0 0 1 0 0 0 0.5 0" in="shadowInnerInner1" result="shadowMatrixInner1"/>
            <feGaussianBlur stdDeviation="1.5" in="SourceAlpha" result="shadowBlurInner2"/>
            <feOffset dy="3" in="shadowBlurInner2" result="shadowOffsetInner2"/>
            <feComposite in="shadowOffsetInner2" in2="SourceAlpha" operator="arithmetic" k2="-1" k3="1" result="shadowInnerInner2"/>
            <feColorMatrix values="0 0 0 0 1 0 0 0 0 1 0 0 0 0 1 0 0 0 0.5 0" in="shadowInnerInner2" result="shadowMatrixInner2"/>
            <feGaussianBlur stdDeviation="2" in="SourceAlpha" result="shadowBlurInner3"/>
            <feOffset dy="1" in="shadowBlurInner3" result="shadowOffsetInner3"/>
            <feComposite in="shadowOffsetInner3" in2="SourceAlpha" operator="arithmetic" k2="-1" k3="1" result="shadowInnerInner3"/>
            <feColorMatrix values="0 0 0 0 0 0 0 0 0 1 0 0 0 0 1 0 0 0 0.5 0" in="shadowInnerInner3" result="shadowMatrixInner3"/>
            <feMerge>
                <feMergeNode in="shadowMatrixInner1"/>
                <feMergeNode in="shadowMatrixInner2"/>
                <feMergeNode in="shadowMatrixInner3"/>
            </feMerge>
        </filter>
        <path d="M.66 1.654a39.699 39.699 0 0 1 22.676 0 .93.93 0 0 1 .66.9v4.814a17.682 17.682 0 0 1-11.338 16.497 1.815 1.815 0 0 1-1.32 0A17.682 17.682 0 0 1 0 7.368V2.553a.93.93 0 0 1 .66-.9zm11.338 2.714a5.999 5.999 0 1 0 0 11.998 5.999 5.999 0 0 0 0-11.998zm1.815 3.974a.753.753 0 1 1 1.065 1.065l-3.525 3.51-1.92-2.04a.75.75 0 0 1 1.065-1.05l.87.96z" id="44kj2vt0va"/>
    </defs>
    <g fill-rule="nonzero" fill="none">
        <use fill-opacity=".9" fill="#4684F8" xlink:href="#44kj2vt0va"/>
        <use fill="#000" filter="url(#fprx4it3hb)" xlink:href="#44kj2vt0va"/>
    </g>
</svg>
